Genre:Action | Adventure | Crime
Language:English 
http://www.imdb.com/title/tt1345836/
Source:26K Thanks
Encoder:Tony

Format : AVI
Format/Info : Audio Video Interleave
File size : 1.31 GiB
Duration : 2h 37mn
Overall bit rate : 1 191 Kbps

Video
ID : 0
Format : MPEG-4 Visual
Format profile : Advanced Simple@L5
Format settings, BVOP : 1
Format settings, QPel : No
Format settings, GMC : No warppoints
Format settings, Matrix : Default (H.263)
Codec ID : XVID
Codec ID/Hint : XviD
Duration : 2h 37mn
Bit rate : 1 019 Kbps
Width : 640 pixels
Height : 232 pixels
Display aspect ratio : 2.759
Frame rate : 29.970 fps
Color space : YUV
Chroma subsampling : 4:2:0
Bit depth : 8 bits
Scan type : Progressive
Compression mode : Lossy
Bits/(Pixel*Frame) : 0.229
Stream size : 1.12 GiB (86%)
Writing library : XviD 1.2.1 (UTC 2008-12-04)

Audio
ID : 1
Format : AC-3
Format/Info : Audio Coding 3
Mode extension : CM (complete main)
Codec ID : 2000
Duration : 2h 37mn
Bit rate mode : Constant
Bit rate : 160 Kbps
Channel(s) : 2 channels
Channel positions : Front: L R
Sampling rate : 48.0 KHz
Bit depth : 16 bits
Compression mode : Lossy
Stream size : 180 MiB (13%)
Alignment : Aligned on interleaves
Interleave, duration : 33 ms (1.00 video frame)
Interleave, preload duration : 512 ms



Plot:
Eight years on, a new terrorist leader, Bane, overwhelms Gotham's finest, and the Dark Knight resurfaces to protect a city that has branded him an enemy.
 
http://img441.imageshack.us/img441/166/vlcsnap2012080106h30m37.png 
http://img864.imageshack.us/img864/6963/vlcsnap2012080106h30m51.png 
http://img819.imageshack.us/img819/6839/vlcsnap2012080106h31m14.png 
http://img228.imageshack.us/img228/6600/vlcsnap2012080106h31m23.png 
http://img210.imageshack.us/img210/4087/vlcsnap2012080106h32m17.png 
http://img39.imageshack.us/img39/9633/vlcsnap2012080106h32m11.png